PathFileType	4	(X/Y/Z)	 s02c0401.trc
DataRate	CameraRate	NumFrames	NumMarkers	Units	OrigDataRate	OrigDataStartFrame	OrigNumFrames
200	200	6	50	mm	200	1751	2000
Frame#	Time	racr			lacr			c7			jug			rlel			rdr			llel			ldr			s2			lic			ric			lasi			rasi			rpsi			lpsi			rgt			lgt			rth1			rth2			rth3			rth4			rlfc			rmfc			rsh1			rsh2			rsh3			rsh4			rlmal			rmmal			rtoe			rmt5			rmt1			lth1			lth2			lth4			lth3			llfc			lmfc			lsh1			lsh2			lsh3			lsh4			llmal			lmmal			lcal			ltoe			lmt5			SBIKE			LBIKE			RBIKE			
		X1	Y1	Z1	X2	Y2	Z2	X3	Y3	Z3	X4	Y4	Z4	X5	Y5	Z5	X6	Y6	Z6	X7	Y7	Z7	X8	Y8	Z8	X9	Y9	Z9	X10	Y10	Z10	X11	Y11	Z11	X12	Y12	Z12	X13	Y13	Z13	X14	Y14	Z14	X15	Y15	Z15	X16	Y16	Z16	X17	Y17	Z17	X18	Y18	Z18	X19	Y19	Z19	X20	Y20	Z20	X21	Y21	Z21	X22	Y22	Z22	X23	Y23	Z23	X24	Y24	Z24	X25	Y25	Z25	X26	Y26	Z26	X27	Y27	Z27	X28	Y28	Z28	X29	Y29	Z29	X30	Y30	Z30	X31	Y31	Z31	X32	Y32	Z32	X33	Y33	Z33	X34	Y34	Z34	X35	Y35	Z35	X36	Y36	Z36	X37	Y37	Z37	X38	Y38	Z38	X39	Y39	Z39	X40	Y40	Z40	X41	Y41	Z41	X42	Y42	Z42	X43	Y43	Z43	X44	Y44	Z44	X45	Y45	Z45	X46	Y46	Z46	X47	Y47	Z47	X48	Y48	Z48	X49	Y49	Z49	X50	Y50	Z50	
1751	8.7550	800.739563	1196.430484	-129.329374	825.360398	1163.913227	-482.885867	819.936438	1237.054015	-317.427362	743.892595	1117.070006	-319.384012	616.149638	1025.441545	-21.063250	714.053578	884.011843	-110.626977	606.735204	1037.419873	-637.576315	710.564520	883.171561	-538.503985	260.994072	1166.367700	-355.789272	411.120490	1123.466960	-486.034710	372.689402	1176.106959	-206.620793	438.085418	1084.871196	-449.975622	423.116942	1137.238240	-221.483419	291.391447	1212.576714	-318.258853	308.627425	1202.064277	-400.440023	346.873739	1099.107214	-157.302940	327.587016	1041.080724	-507.070979	432.675611	1058.534611	-158.768133	516.809951	1030.131556	-168.031740	578.643625	975.849748	-144.936829	530.500573	1049.617289	-198.200160	670.374383	860.245088	-176.597994	645.467568	841.439818	-286.630004	599.019073	776.574582	-156.290193	534.247264	716.284440	-168.269323	453.283436	689.374051	-156.855789	540.324144	703.910900	-207.383432	344.744652	634.694865	-152.093960	360.080634	643.577934	-233.464034	421.059845	423.327046	-192.244352	348.389406	503.750585	-133.339990	370.337103	487.909837	-240.958217	370.206831	909.640837	-523.123707	395.499655	826.372905	-515.935563	428.804890	829.015048	-500.528095	374.188962	740.242952	-514.523270	377.430437	644.675010	-489.101033	365.332612	616.508520	-392.584442	339.765999	548.375995	-513.900415	335.724249	463.667640	-498.906252	286.441973	387.355153	-500.237940	352.432158	461.066502	-461.345358	244.012999	291.066389	-486.552776	254.842224	284.559515	-408.555619	167.421114	283.399966	-449.148050	396.225531	104.671844	-433.306129	301.527931	148.815754	-501.564197	-162.284747	860.612096	-310.297280	37.399078	86.149802	-514.336363	33.988534	83.136222	-114.241769	
1752	8.7600	799.757551	1195.648965	-126.431991	826.283414	1164.803218	-479.767097	819.898256	1236.809940	-313.920390	743.857259	1116.837052	-316.676683	615.205949	1024.167034	-19.900868	713.713816	884.170374	-110.573950	608.636098	1038.600179	-636.253413	710.729810	882.970607	-538.253841	261.445048	1168.176886	-355.851655	412.152547	1124.629895	-486.281609	372.381452	1177.573131	-207.050046	438.405206	1086.012519	-450.084380	422.969732	1138.898084	-221.873707	291.787014	1214.245614	-319.331047	309.097023	1203.804099	-401.593483	347.305984	1102.220470	-157.859643	327.213764	1042.450750	-507.513988	432.730710	1062.749187	-159.002339	516.844952	1034.431371	-168.332650	578.716527	980.358601	-144.838359	530.480997	1053.971304	-198.475251	675.674487	864.926720	-178.955009	648.297860	847.111257	-286.546709	603.380735	781.027471	-155.940977	540.123039	719.217311	-168.100911	459.679558	690.839820	-156.681108	546.391288	707.242366	-207.202617	351.556532	633.718082	-152.167011	366.531808	642.866487	-233.288646	432.835275	424.656319	-192.414268	358.240267	503.128883	-133.183279	380.515002	488.136884	-240.946644	368.368683	911.103612	-524.015932	392.554967	827.452742	-517.228219	425.900184	829.508496	-501.773969	370.025784	741.615700	-515.722992	372.045124	645.946177	-490.468563	359.981077	617.642907	-393.649667	333.506504	550.174190	-515.179249	329.070108	465.407013	-500.276140	278.700271	389.256349	-500.960830	345.866936	462.765981	-462.776897	236.900397	294.198324	-488.596619	246.219475	287.470693	-411.159728	160.552588	287.177397	-450.512306	385.320086	103.607686	-432.962470	291.837811	149.403429	-501.817576	-162.282756	860.600607	-310.302090	37.392335	86.159040	-514.341272	33.990091	83.132903	-114.246010	
1753	8.7650	798.734357	1194.565911	-123.517133	827.198688	1165.468752	-476.558662	819.926859	1236.475056	-310.425015	743.761430	1116.604312	-314.143336	613.946070	1022.689939	-19.798881	713.433585	884.299629	-110.491411	610.596330	1039.794925	-634.856761	710.814461	882.863805	-537.953537	261.815190	1170.353547	-357.172736	412.723000	1125.907822	-486.476444	372.127620	1179.287843	-207.516345	438.963576	1087.718960	-450.829414	422.824357	1140.782641	-222.224653	292.269734	1216.136207	-320.332257	309.058092	1206.226490	-402.132057	347.627840	1105.403493	-158.331622	326.912646	1044.396467	-508.152177	432.595904	1066.782457	-159.216461	516.747504	1038.575893	-168.432832	578.660274	984.814125	-144.170278	530.388419	1058.041122	-198.485480	671.401277	872.920345	-173.222449	650.445711	851.965630	-285.774531	607.354572	785.042803	-155.614667	545.534301	721.818325	-167.704730	465.624769	691.644920	-156.442033	552.109110	709.949969	-206.696442	357.738756	632.040094	-152.027873	373.921579	641.081932	-233.086930	444.925356	425.952064	-193.363320	367.298046	502.005967	-133.089832	390.453961	487.906047	-240.864259	366.755724	913.056059	-524.800387	390.061078	829.284768	-518.562838	423.283641	830.620816	-502.989406	366.306895	743.533538	-516.931191	367.359199	647.701215	-491.733075	355.515815	619.462959	-394.523801	327.884938	552.553079	-516.415615	322.973305	467.900788	-501.688190	272.035919	391.942924	-502.109986	339.870833	464.965961	-464.218448	230.635713	295.790896	-488.856040	239.775572	290.331196	-412.000482	153.941900	291.698418	-451.600829	374.553605	103.264355	-432.689800	282.202476	150.703786	-501.904256	-162.340339	860.608097	-310.264768	37.374117	86.164937	-514.336073	33.993782	83.119282	-114.232161	
1754	8.7700	797.777143	1193.256318	-120.756311	828.030032	1165.928883	-473.518253	820.058705	1235.828233	-306.886091	743.463853	1116.262184	-311.560935	612.622579	1021.429916	-18.316458	713.030105	884.398668	-110.270092	612.473747	1041.020187	-633.557775	710.914731	882.783292	-537.664578	262.216728	1173.012997	-358.187555	414.138869	1128.148894	-488.279458	372.068523	1181.287185	-207.815884	439.055126	1089.592167	-451.069809	422.671323	1142.687999	-222.454290	292.858115	1218.452397	-321.125805	310.229770	1208.562534	-403.145628	348.004438	1108.416440	-158.967951	326.517677	1046.841787	-509.153239	432.197996	1070.580664	-159.496488	516.336849	1042.266892	-168.452869	579.276780	988.823214	-144.027197	530.079676	1061.721227	-198.377649	671.652987	878.000161	-171.725474	651.745554	855.902228	-285.062049	610.618493	788.515588	-154.872724	551.419370	724.386156	-165.728582	470.955619	692.236654	-155.893800	557.213390	712.196794	-205.859702	363.306310	629.632992	-151.738025	378.267146	638.897723	-232.569004	456.095492	426.299284	-192.594817	376.493206	500.416893	-132.668166	400.116867	487.008810	-240.438107	365.354800	915.486272	-525.497255	387.902475	831.507983	-519.943297	421.157767	832.393543	-504.346091	363.094545	745.949701	-517.990078	363.496242	649.752472	-493.008827	352.208259	621.852512	-395.463738	322.984081	555.309909	-517.505752	317.477572	470.742459	-502.922261	265.823022	395.205656	-503.008272	334.643609	467.477402	-465.485082	224.296431	299.142739	-489.779504	233.865314	293.550142	-412.437891	147.705175	296.877783	-452.430272	363.792371	103.472371	-432.523284	272.616765	152.675220	-502.134441	-162.397200	860.594573	-310.281636	37.383674	86.177614	-514.339793	33.990028	83.139574	-114.238714	
1755	8.7750	796.768317	1191.606680	-118.061390	828.906732	1166.270266	-470.467837	820.183347	1235.008864	-303.424047	743.199764	1115.737114	-309.178776	611.204323	1020.036867	-16.973501	712.569971	884.501918	-110.049835	614.230612	1042.246500	-632.258429	710.987619	882.691361	-537.400235	262.728152	1175.956819	-359.091738	414.616899	1130.697856	-488.407193	372.150091	1183.557605	-207.919596	439.022652	1091.934248	-451.406040	422.450341	1144.725644	-222.594856	293.807191	1220.409759	-322.318847	311.437616	1211.569542	-404.935423	348.489644	1111.200040	-159.441858	326.114531	1049.730519	-509.784306	431.658096	1074.143556	-159.788176	515.551096	1045.363244	-168.570439	577.288489	991.867340	-142.847001	529.586843	1064.745641	-198.388422	671.458921	881.510151	-171.254218	652.418592	859.079737	-284.298661	613.107996	791.324481	-153.832600	555.365434	725.702834	-164.587810	475.603231	691.972439	-155.177058	561.974463	714.018299	-204.118337	368.117099	626.429853	-151.347575	382.563088	636.350871	-232.395743	467.283156	426.860349	-192.615931	385.351399	498.172167	-132.168530	409.465582	485.959974	-240.461339	364.179946	918.289942	-525.974217	386.036033	834.020869	-521.084017	419.478090	834.625483	-505.754048	360.533015	748.691060	-519.002702	360.499247	652.305023	-494.252796	349.221144	623.900166	-396.058867	319.027220	558.408330	-518.543454	312.483043	473.784808	-503.700086	260.211619	398.908051	-503.837336	330.060718	470.366799	-466.608218	218.198191	303.167928	-490.505948	228.051876	297.589587	-412.963383	141.772255	302.745643	-452.884087	353.093587	104.382365	-432.665639	263.064967	155.400609	-502.291748	-162.402303	860.603458	-310.269284	37.370023	86.232717	-514.308650	33.979919	83.128789	-114.232066	
1756	8.7800	795.636756	1189.698151	-115.490903	829.746052	1166.445851	-467.525390	820.364310	1234.221199	-300.131590	742.805590	1115.390831	-307.202949	609.771103	1018.623912	-15.580015	712.147041	885.144028	-109.135009	615.918710	1043.468258	-630.995529	711.156056	882.698361	-537.219053	263.151824	1179.343314	-359.770566	415.123536	1133.871019	-488.789785	372.303978	1185.891144	-207.998876	438.903191	1094.631850	-451.629471	422.086970	1146.670142	-222.781274	294.438613	1223.790927	-322.502968	311.360616	1214.976703	-404.014792	348.765953	1114.138032	-159.864186	325.598871	1052.951673	-510.452753	431.000031	1077.348132	-160.183518	514.481778	1048.121465	-168.380144	575.819092	994.508970	-142.247191	529.053505	1067.347840	-198.315825	670.469950	883.898087	-170.996615	652.174703	862.665733	-284.079761	614.613557	793.300604	-152.643331	558.296404	726.317230	-163.445702	479.211315	691.084574	-154.252109	565.467384	714.592914	-202.767332	372.271963	622.482349	-150.876002	386.269230	632.734431	-231.808787	478.916154	426.716363	-191.672525	393.650135	495.291894	-131.616568	418.281050	484.208597	-239.998393	363.171211	921.415520	-526.426416	384.694393	837.005633	-522.085701	418.278180	837.463024	-507.034844	358.791183	751.829534	-519.878737	358.524617	654.921850	-494.946829	347.564536	626.701679	-396.306770	316.031153	561.814527	-519.331064	307.771696	477.202790	-503.856307	255.121144	403.008928	-504.309078	326.405444	473.790239	-467.973009	212.278751	307.859235	-491.042604	222.340001	302.320808	-413.524966	136.063518	309.251203	-453.019762	342.697481	106.151020	-432.912523	253.620432	158.760649	-502.379135	-162.430351	860.678766	-310.086455	37.356344	86.264961	-514.304802	33.971861	83.137414	-114.222970	
